<svg viewBox="0 0 512 512" xmlns="http://www.w3.org/2000/svg"><g fill="#000" fill-rule="nonzero"><path d="M180.006 360.011c-48.065 0-93.257-18.722-127.247-52.712-70.161-70.161-70.161-184.334 0-254.495C86.75 18.813 131.941.092 180.006.092s93.255 18.722 127.247 52.712c33.998 33.991 52.72 79.182 52.72 127.248.008 48.065-18.714 93.256-52.704 127.247-33.999 33.99-79.19 52.712-127.263 52.712zm0-351.921c-45.934 0-89.117 17.894-121.593 50.369-67.044 67.045-67.044 176.141 0 243.185 32.476 32.476 75.659 50.369 121.593 50.369 45.933 0 89.124-17.894 121.607-50.369 32.476-32.483 50.369-75.659 50.361-121.592 0-45.934-17.894-89.117-50.377-121.593C269.122 25.983 225.939 8.09 180.006 8.09z"></path><path d="M179.975 344c-43.793 0-84.97-17.051-115.938-48.011-63.928-63.921-63.928-167.939 0-231.86 30.968-30.968 72.145-48.026 115.946-48.026 43.792 0 84.96 17.05 115.929 48.01 63.912 63.928 63.912 167.939.016 231.875C264.951 326.949 223.775 344 179.975 344zm.008-319.899c-41.661 0-80.83 16.222-110.291 45.683-60.804 60.804-60.804 159.746 0 220.55 29.453 29.445 68.622 45.668 110.283 45.668 41.66 0 80.837-16.223 110.297-45.668 60.781-60.812 60.773-159.762-.016-220.565-29.451-29.446-68.621-45.668-110.273-45.668zM335.229 367.532a3.99 3.99 0 0 1-2.827-1.171l-36.443-36.443a3.998 3.998 0 1 1 5.654-5.655l36.443 36.443a3.998 3.998 0 0 1-2.827 6.826zM363.503 339.274a3.988 3.988 0 0 1-2.827-1.172l-36.443-36.459a3.997 3.997 0 0 1 0-5.654 3.997 3.997 0 0 1 5.654 0l36.443 36.459a3.997 3.997 0 0 1 0 5.654 3.98 3.98 0 0 1-2.827 1.172z"></path><path d="M329.574 373.203a3.997 3.997 0 0 1-2.827-6.826l39.583-39.584a3.998 3.998 0 1 1 5.655 5.655l-39.583 39.583a3.987 3.987 0 0 1-2.828 1.172z"></path><path d="M499.123 463.593a3.984 3.984 0 0 1-2.827-1.172L366.33 332.448a3.998 3.998 0 1 1 5.655-5.655L501.95 456.766a3.998 3.998 0 0 1-2.827 6.827zM460.071 503.691a3.984 3.984 0 0 1-2.827-1.172L326.747 372.031a3.998 3.998 0 1 1 5.655-5.654l130.496 130.488a3.997 3.997 0 0 1-2.827 6.826z"></path><path d="M479.878 511.908c-8.552 0-16.589-3.336-22.634-9.389a3.997 3.997 0 0 1 0-5.654 3.997 3.997 0 0 1 5.654 0c4.538 4.545 10.567 7.045 16.979 7.045h.016c6.405-.008 12.411-2.5 16.925-7.029 4.546-4.538 7.045-10.561 7.045-16.965 0-6.412-2.499-12.441-7.037-16.979a3.998 3.998 0 1 1 5.655-5.655c6.053 6.054 9.38 14.09 9.38 22.635 0 8.545-3.327 16.574-9.38 22.619-6.021 6.037-14.043 9.365-22.588 9.373l-.015-.001z"></path><path d="M488.345 475.418a3.986 3.986 0 0 1-2.827-1.172L366.33 355.051a3.998 3.998 0 1 1 5.655-5.654l119.187 119.194a3.998 3.998 0 0 1-2.827 6.827zM221.564 320.742c-3.022-.95 1.69-5.791-4.01-7.36 2.63-2.034 10.482-9.503 11.31-19.182.556-6.006-2.55-11.611-7.3-16.863-.428-4.988-2.077-22.936-.349-38.288.556-6.005 14.215-5.899 28.857-6.148 18.647-.316 41.95-.712 54.707-13.26 24.21-23.72 13.617-38.525 13.286-38.844-.675-.652-2.026-1.292-3.022-.95-.995.342-2.31 1.04-2.63 2.034 0 0-7.934 21.779-21.817 27.334-4.963 1.75-16.62 1.61-29.617 1.505-18.99-.68-39.983-1.325-52.858 4.565 4.455-13.382 14.795-30.87 29.341-36.45 11.255-4.184 19.343-16.639 21.377-32.998 2.073-15.019-.609-33.964-11.758-42.763-.675-.652-1.351-.64-2.678-.618-.676.012-2.321.365-3.612 2.39-1.622 2.369-1.55 6.348.215 11.989 2.121 7.287 5.786 25.214-8.31 37.77-1.303 1.35-2.962 2.38-4.265 3.728-11.81 10.19-30.833 26.499-42.805 45.015 2.082-13.68 3.455-30.014 3.24-42.003-.763-23.634.607-58.959.607-58.959.284-2.996.163-8.99-3.508-9.93-4.016-1.271-7.273 2.79-11.158 8.853-6.786 11.106-7.719 33.767-8.024 53.738-.128 10.993-.625 20.991-2.175 26.676-3.102 12.695-9.578 41.785-12.053 52.48-6.066-3.89-19.536-12.988-31.172-30.103-10.262-15.148-8.062-41.16-6.867-48.49.273-3.673-1.126-6.966-4.147-8.58-1.682-.96-4.016-1.272-5.33-.573-.995.342-1.647 1.017-2.31 1.704-1.303 1.35-2.595 4.037-3.542 7.058-4.393 14.72-10.3 57.446 10.68 76.405l5.083 4.909c-2.69-1.294-5.035-2.256-8.388-3.526-19.785-7.325-27.025-21.523-23.131-45.9-.38-2.999-1.458-7.312-4.812-7.919-4.004-.595-5.923 4.094-6.882 6.439-4.478 10.729-9.543 43.788 13.347 57.382 17.168 10.037 36.54 32.016 43.493 49.208-3.86 7.389-8.881 24.8-4.934 40.367 113.819 23.1 98.915-11.52 97.92-11.842zm-86.982-30.602c-6.992-18.533-28.085-42.812-46.921-53.822-18.506-10.664-14.99-38.039-11.191-48.093-3.22 25.029 5.74 41.526 27.527 49.48 22.13 8.288 26.989 19.522 26.989 19.522.687 1.328 2.37 2.288 3.697 1.602 1.658-.367 2.63-2.035 2.262-3.694-.343-.995-1.85-10.296-23.508-29.908-18.613-16.671-12.353-57.061-8.918-70.099.936-3.67 2.25-4.37 1.92-4.69 1.018.985 1.694 1.637 1.386 2.644-1.479 10.353-3.347 36.021 7.946 52.804 17.086 24.345 36.577 34.019 36.905 34.336 1.008.308 1.671.31 2.653-.045.996-.342 1.303-1.349 1.623-2.369.332-.344 9.258-40.792 13.309-56.51 1.55-6.347 2.034-16.358 2.164-28.015.66-18.325.93-40.962 7.09-50.73 1.29-2.026 2.261-3.694 2.926-4.382l.036 2.003c-.333.343-1.69 35.655-.596 59.608.69 19.63-4.695 53.683-6.174 64.035-.308 1.67.736 3.317 2.393 3.614 1.67.31 3.317-.732 3.612-2.39 5.222-25.062 34.728-50.212 50.152-63.456 1.302-1.348 2.962-2.378 4.264-3.727 17.364-15.279 12.316-37.839 10.206-43.786-.699-1.978-.736-3.317-1.079-4.313 5.782 6.887 8.368 20.5 6.604 33.85-1.739 14.012-8.55 24.455-17.47 28.261-25.123 9.753-38.424 48.611-39.394 50.278-.64 1.35.06 3.329 1.73 3.639 1.351.64 3.329-.057 3.968-1.407 6.11-11.758 36.094-10.94 57.764-10.308 13.99.426 25.992.899 32.27-1.55 9.915-4.174 17.057-14.272 21.25-22.004-.568 5.33-3.766 12.72-13.917 22.543-10.803 10.498-32.766 10.884-50.406 11.509-17.97.305-33.965.576-35.088 11.911-1.336 18.337.372 39.614.729 40.623.012.676.367 1.658 1.043 2.31 4.407 4.257 6.468 8.215 6.552 12.87-.508 8.658-9.38 15.143-9.38 15.143l-.983 1.019c-.307 1.006-.628 2-1.231 5.354l.012.676 4.955 15.901c-7.89 6.13-19.96 6.378-31.238 9.236-27.696 0-39.826-2.858-55.7-9.236-2.932-12.593 3.399-32.193 6.976-37.248.648-.667.625-1.993.281-2.989z"></path></g></svg>