<?xml version="1.0" encoding="UTF-8"?>
<svg width="80" height="80" version="1.1" viewBox="0 0 1 1" xmlns="http://www.w3.org/2000/svg" xmlns:cc="http://creativecommons.org/ns#" xmlns:dc="http://purl.org/dc/elements/1.1/" xmlns:rdf="http://www.w3.org/1999/02/22-rdf-syntax-ns#" xmlns:xlink="http://www.w3.org/1999/xlink">
 <metadata>
  <rdf:RDF>
   <cc:Work rdf:about="">
    <dc:format>image/svg+xml</dc:format>
    <dc:type rdf:resource="http://purl.org/dc/dcmitype/StillImage"/>
    <dc:title/>
   </cc:Work>
  </rdf:RDF>
 </metadata>
 <defs>
  <linearGradient id="linearGradient939">
   <stop stop-color="#b21f0f" offset="0"/>
   <stop stop-color="#f38300" offset="1"/>
  </linearGradient>
  <linearGradient id="linearGradient941" x1=".034853" x2=".48968" y1=".51582" y2=".51408" gradientUnits="userSpaceOnUse" spreadMethod="reflect" xlink:href="#linearGradient939"/>
  <linearGradient id="linearGradient943" x1=".10198" x2=".48968" y1=".5155" y2=".51408" gradientUnits="userSpaceOnUse" spreadMethod="reflect" xlink:href="#linearGradient939"/>
  <linearGradient id="linearGradient945" x1=".85733" x2=".4763" y1=".46241" y2=".46382" gradientUnits="userSpaceOnUse" spreadMethod="reflect" xlink:href="#linearGradient939"/>
 </defs>
 <g stroke="#333" stroke-width=".026457">
  <path d="m0.26 0.65s0.033584 0.002878 0.05 0c0.02564-0.004495 0.050053-0.015127 0.073438-0.026562 0.017368-0.0084936 0.033956-0.018871 0.049062-0.030938 0.014733-0.011768 0.027957-0.025491 0.04-0.04 0.018982-0.022869 0.031991-0.050212 0.050357-0.073578 0.012553-0.015972 0.023846-0.034019 0.040737-0.045328 0.028278-0.018933 0.062853-0.027915 0.096407-0.033593 0.01972-0.003337 0.040142-0.002376 0.06 0 0.032888 0.003934 0.065725 0.01135 0.096562 0.023438 0.029654 0.011623 0.083438 0.046562 0.083438 0.046562s-0.040087-0.001859-0.06 0c-0.019894 0.001857-0.039923 0.004861-0.058906 0.011094-0.033221 0.010907-0.066027 0.025217-0.094531 0.045468-0.034586 0.024573-0.066183 0.05494-0.089844 0.090156-0.017026 0.025341-0.026796 0.05486-0.035625 0.083948-0.005499 0.018115-0.008841 0.036944-0.010618 0.055791-0.001496 0.015867-0.002268 0.032037 0 0.047812 0.00555 0.038613 0.018732 0.075971 0.032962 0.11229 0.0072563 0.018521 0.026562 0.053438 0.026562 0.053438-0.025213 0.002208-0.048031-0.0027-0.071094-0.008907-0.03928-0.010572-0.078031-0.025808-0.11234-0.047656-0.037828-0.024087-0.072469-0.0546-0.1-0.09-0.028791-0.03702-0.053722-0.079129-0.065469-0.12453-0.0040844-0.015786-0.0010932-0.048905-0.0010932-0.048905z" fill="url(#linearGradient945)"/>
  <path d="m0.70663 0.34584s-0.033584-0.002878-0.05 0c-0.02564 0.004495-0.050053 0.015127-0.073438 0.026562-0.017368 0.008494-0.033956 0.018871-0.049062 0.030938-0.014733 0.011768-0.027957 0.025491-0.04 0.04-0.018982 0.022869-0.031991 0.050212-0.050357 0.073578-0.012553 0.015972-0.023846 0.034019-0.040737 0.045328-0.028278 0.018933-0.062853 0.027915-0.096407 0.033593-0.01972 0.003337-0.040142 0.002376-0.06 0-0.032888-0.003934-0.065725-0.01135-0.096562-0.023438-0.029654-0.011623-0.083438-0.046562-0.083438-0.046562s0.040087 0.001859 0.06 0c0.019894-0.001857 0.039923-0.004861 0.058906-0.011094 0.033221-0.010907 0.066027-0.025217 0.094531-0.045468 0.034586-0.024573 0.066183-0.05494 0.089844-0.090156 0.017026-0.025341 0.026796-0.05486 0.035625-0.083948 0.005499-0.018115 0.008841-0.036944 0.010618-0.055791 0.001496-0.015867 0.002268-0.032037 0-0.047812-0.00555-0.038613-0.018732-0.075971-0.032962-0.11229-0.007256-0.018521-0.026562-0.053438-0.026562-0.053438 0.025213-0.002208 0.048031 0.0027 0.071094 0.008907 0.03928 0.010572 0.078031 0.025808 0.11234 0.047656 0.037828 0.024087 0.072469 0.0546 0.1 0.09 0.02879 0.03702 0.053722 0.079129 0.065469 0.12453 0.004084 0.015786 0.001093 0.048905 0.001093 0.048905z" fill="url(#linearGradient943)"/>
 </g>
</svg>
